<svg width="47" height="13" viewBox="0 0 47 13" fill="none" xmlns="http://www.w3.org/2000/svg">
<path d="M7.12729 0.237305V6.60475L2.60306 0.237305H0.592285V11.9668H3.27331V5.59936L7.79755 11.9668H9.80832V0.237305H7.12729Z" fill="white"/>
<path d="M15.3514 12.2014C17.8146 12.2014 19.7919 10.2744 19.7919 7.7777C19.7919 5.28099 17.8146 3.354 15.3514 3.354C12.8882 3.354 10.911 5.28099 10.911 7.7777C10.911 10.2744 12.8882 12.2014 15.3514 12.2014ZM15.3514 9.75496C14.2623 9.75496 13.4244 8.96741 13.4244 7.7777C13.4244 6.58799 14.2623 5.80044 15.3514 5.80044C16.4406 5.80044 17.2784 6.58799 17.2784 7.7777C17.2784 8.96741 16.4406 9.75496 15.3514 9.75496Z" fill="white"/>
<path d="M28.7687 0.237305H20.0554V2.8178H23.0715V11.9668H25.7526V2.8178H28.7687V0.237305Z" fill="white"/>
<path d="M34.0316 3.58859V4.37614C33.4786 3.7394 32.6575 3.354 31.5348 3.354C29.3398 3.354 27.5301 5.28099 27.5301 7.7777C27.5301 10.2744 29.3398 12.2014 31.5348 12.2014C32.6575 12.2014 33.4786 11.816 34.0316 11.1793V11.9668H36.545V3.58859H34.0316ZM32.0375 9.82199C30.8813 9.82199 30.0435 9.03443 30.0435 7.7777C30.0435 6.52097 30.8813 5.73342 32.0375 5.73342C33.1937 5.73342 34.0316 6.52097 34.0316 7.7777C34.0316 9.03443 33.1937 9.82199 32.0375 9.82199Z" fill="white"/>
<path d="M42.9951 3.354C41.8724 3.354 41.0513 3.7394 40.4984 4.37614V0.237305H37.9849V11.9668H40.4984V11.1793C41.0513 11.816 41.8724 12.2014 42.9951 12.2014C45.1902 12.2014 46.9998 10.2744 46.9998 7.7777C46.9998 5.28099 45.1902 3.354 42.9951 3.354ZM42.4924 9.82199C41.3362 9.82199 40.4984 9.03443 40.4984 7.7777C40.4984 6.52097 41.3362 5.73342 42.4924 5.73342C43.6486 5.73342 44.4864 6.52097 44.4864 7.7777C44.4864 9.03443 43.6486 9.82199 42.4924 9.82199Z" fill="white"/>
</svg>
